# xmcd
#
# Track frame offsets:
#	150
#	14991
#	35766
#	48366
#	65495
#	75590
#	88008
#	104747
#	124196
#	140080
#	156879
#	174682
#	189276
#	203361
#	218090
#	235025
#	250084
#	265310
#	283375
#	293740
#	303833
#
# Disc length: 4311 seconds
#
# Revision: 1
# Processed by: cddbd v1.5.2PL0 Copyright (c) Steve Scherf et al.
# Submitted via: EasyCDDAExtractor 12.0.0.1
#
DISCID=3910d515
DTITLE=Vari - Romantic Sax [CD1)
DYEAR=1900
DGENRE=
TTITLE0=How Deep Is Your Love
TTITLE1=My Way
TTITLE2=Dark Eyes
TTITLE3=I Will Always Love You
TTITLE4=Tenderly
TTITLE5=September Song
TTITLE6=Don't Cry for Me Argentina
TTITLE7=Change the World
TTITLE8=To All the Girls I've Loved
TTITLE9=We Have Got Tonight
TTITLE10=Even the Night Are Betters
TTITLE11=Too Much Heaven
TTITLE12=It's My Turn
TTITLE13=The Way We Were
TTITLE14=Suddenly
TTITLE15=My Love
TTITLE16=Don't Fall in Love with a Dreamer
TTITLE17=Memory
TTITLE18=Body and Soul
TTITLE19=Red Sails in the Sunset
TTITLE20=Just the Way You are
EXTD=
EXTT0=
EXTT1=
EXTT2=
EXTT3=
EXTT4=
EXTT5=
EXTT6=
EXTT7=
EXTT8=
EXTT9=
EXTT10=
EXTT11=
EXTT12=
EXTT13=
EXTT14=
EXTT15=
EXTT16=
EXTT17=
EXTT18=
EXTT19=
EXTT20=
PLAYORDER=
